<svg width="17" height="16" viewBox="0 0 17 16" fill="none" xmlns="http://www.w3.org/2000/svg">
<path d="M12.9653 3.2H16.9623V4.8H15.3635V15.2C15.3635 15.4122 15.2793 15.6157 15.1294 15.7657C14.9794 15.9157 14.7761 16 14.5641 16H3.37255C3.16054 16 2.95721 15.9157 2.8073 15.7657C2.65738 15.6157 2.57316 15.4122 2.57316 15.2V4.8H0.974365V3.2H4.97135V0.8C4.97135 0.587827 5.05557 0.384344 5.20548 0.234315C5.3554 0.0842854 5.55873 0 5.77074 0H12.1659C12.3779 0 12.5813 0.0842854 12.7312 0.234315C12.8811 0.384344 12.9653 0.587827 12.9653 0.8V3.2ZM13.7647 4.8H4.17195V14.4H13.7647V4.8ZM6.57014 7.2H8.16893V12H6.57014V7.2ZM9.76772 7.2H11.3665V12H9.76772V7.2ZM6.57014 1.6V3.2H11.3665V1.6H6.57014Z" fill="#4B5563"/>
</svg>
